<svg viewBox="0 0 48 31" xmlns="http://www.w3.org/2000/svg"><path d="M430.717 76.55v-5.292h-3.774v5.293h-5.434v3.78h5.434v5.444h3.774v-5.444H436v-3.78h-5.283Zm-27.472-.302v6.049s5.857-.008 8.242-.008c-1.291 3.921-3.3 6.057-8.242 6.057-5.002 0-8.905-4.062-8.905-9.073s3.903-9.073 8.905-9.073c2.645 0 4.353.931 5.92 2.229 1.253-1.256 1.149-1.435 4.34-4.454A15.175 15.175 0 0 0 403.244 64C394.825 64 388 70.838 388 79.273c0 8.435 6.826 15.272 15.245 15.272 12.585 0 15.662-10.978 14.642-18.297h-14.642Z" style="fill:#fff" transform="translate(-388 -64)" fill="#DE4D3B" fill-rule="evenodd"/></svg>